<svg width="37" height="37" viewBox="0 0 37 37" fill="none" xmlns="http://www.w3.org/2000/svg">
<circle cx="18.1452" cy="18.1452" r="17.1452" fill="white" stroke="#6776FF" stroke-width="2"/>
<path d="M21.3732 10.683C21.5716 10.8814 21.6831 11.1506 21.6831 11.4313C21.6831 11.712 21.5716 11.9811 21.3732 12.1796L15.7707 17.7821L21.3732 23.3846C21.566 23.5842 21.6727 23.8516 21.6703 24.1291C21.6679 24.4066 21.5566 24.6721 21.3603 24.8683C21.1641 25.0646 20.8986 25.1759 20.6211 25.1783C20.3435 25.1807 20.0762 25.074 19.8765 24.8812L13.5257 18.5304C13.3273 18.3319 13.2158 18.0628 13.2158 17.7821C13.2158 17.5014 13.3273 17.2323 13.5257 17.0338L19.8765 10.683C20.075 10.4845 20.3442 10.373 20.6249 10.373C20.9055 10.373 21.1747 10.4845 21.3732 10.683Z" fill="#5D5FEF"/>
</svg>
