<svg width="37" height="37" viewBox="0 0 37 37" fill="none" xmlns="http://www.w3.org/2000/svg">
<circle cx="18.4359" cy="18.1451" r="17.1452" transform="rotate(-180 18.4359 18.1451)" fill="white" stroke="#6776FF" strokeWidth="2"/>
<path d="M15.2078 25.6073C15.0094 25.4088 14.8979 25.1397 14.8979 24.859C14.8979 24.5783 15.0094 24.3092 15.2078 24.1107L20.8103 18.5082L15.2078 12.9057C15.015 12.7061 14.9084 12.4387 14.9108 12.1612C14.9132 11.8837 15.0245 11.6182 15.2207 11.4219C15.417 11.2257 15.6825 11.1144 15.96 11.112C16.2375 11.1095 16.5049 11.2162 16.7045 11.409L23.0553 17.7599C23.2538 17.9583 23.3652 18.2275 23.3652 18.5082C23.3652 18.7889 23.2538 19.058 23.0553 19.2565L16.7045 25.6073C16.506 25.8058 16.2369 25.9172 15.9562 25.9172C15.6755 25.9172 15.4063 25.8058 15.2078 25.6073Z" fill="#5D5FEF"/>
</svg>
