<svg width="298" height="298" viewBox="0 0 298 298" fill="none" xmlns="http://www.w3.org/2000/svg">
<g clipPath="url(#clip0_864_2118)">
<path d="M283.762 32.8356C286.467 30.9226 287.108 27.1776 285.194 24.4726C283.28 21.7676 279.537 21.1256 276.831 23.0406L261.847 33.6426C259.142 35.5556 258.501 39.3006 260.415 42.0056C261.584 43.6576 263.437 44.5406 265.317 44.5406C266.515 44.5406 267.725 44.1826 268.778 43.4366L283.762 32.8356Z" fill="#A3A3A3"/>
<path d="M244.064 29.3875C244.759 29.6495 245.473 29.7735 246.174 29.7735C248.602 29.7735 250.887 28.2895 251.791 25.8825L258.251 8.70055C259.417 5.59955 257.848 2.13955 254.746 0.973547C251.645 -0.193454 248.184 1.37755 247.018 4.47855L240.558 21.6605C239.393 24.7615 240.962 28.2215 244.064 29.3875Z" fill="#A3A3A3"/>
<path d="M291.223 55.6113C291.182 55.6113 291.141 55.6113 291.099 55.6113L272.748 55.7653C269.435 55.8323 266.804 58.3703 266.871 61.6833C266.937 64.9543 269.61 67.6113 272.868 67.6113C272.909 67.6113 272.95 67.6113 272.992 67.6113L291.343 67.2983C294.656 67.2303 297.287 64.5663 297.22 61.2533C297.154 57.9823 294.481 55.6113 291.223 55.6113Z" fill="#A3A3A3"/>
<path d="M254.2 147.154C251.127 144.721 247.489 143.065 243.643 142.287C243.897 141.827 244.134 141.359 244.358 140.884L246.766 138.476C256.04 129.201 257.014 114.602 249.03 104.515C245.261 99.7539 240.029 96.5899 234.218 95.4089C234.633 94.6449 235.001 93.8639 235.335 93.0709C241.651 83.9219 241.548 71.6259 234.553 62.7879C230.783 58.0239 225.549 54.8499 219.735 53.6709C224.535 44.8449 223.922 33.8449 217.51 25.7459C212.662 19.6209 205.401 16.1069 197.587 16.1069C191.33 16.1069 185.427 18.3429 180.795 22.4369C180.094 18.4579 178.432 14.6149 175.783 11.2679C170.934 5.14291 163.673 1.62991 155.859 1.62891C149.069 1.62891 142.695 4.26391 137.912 9.04691L77.072 69.8869L76.84 61.7669C76.733 47.9369 65.448 36.7179 51.593 36.7179C37.989 36.7179 26.864 47.5329 26.364 61.0159L14.218 149.322L4.23502 160.926C-1.74798 167.883 -1.34698 178.407 5.15002 184.888L19.987 199.7C15.413 206.581 16.214 215.966 22.193 221.93L91.86 291.487C95.189 294.808 99.608 296.635 104.306 296.635C108.163 296.635 111.974 295.34 115.035 292.99L129.579 281.822C143.57 278.517 158.995 271.009 175.453 259.492C189.824 249.434 205.415 236.032 221.79 219.656L256.421 185.025C261.528 179.918 264.216 172.837 263.796 165.598C263.376 158.371 259.879 151.649 254.2 147.154ZM188.124 32.0089C190.727 29.4069 194.156 28.1059 197.586 28.1059C201.501 28.1059 205.417 29.8009 208.101 33.1919C212.357 38.5689 211.611 46.3719 206.762 51.2199L200.585 57.3959C199.633 58.0309 198.706 58.7099 197.838 59.4789C197.137 55.4989 195.474 51.6559 192.825 48.3099C189.568 44.1959 185.221 41.2669 180.35 39.7829L188.124 32.0089ZM146.397 17.5319C148.999 14.9299 152.429 13.6289 155.859 13.6289C159.775 13.6299 163.69 15.3249 166.374 18.7159C170.63 24.0929 169.884 31.8949 165.035 36.7429L94.116 106.929L93.883 98.8099C93.822 90.9849 90.183 83.9979 84.527 79.4049L146.397 17.5319ZM13.624 176.391C11.542 174.313 11.415 170.981 13.333 168.751L25.614 154.474C25.62 154.467 25.625 154.457 25.626 154.448L38.346 61.9649C38.346 54.6789 44.307 48.7179 51.593 48.7179C58.879 48.7179 64.841 54.6789 64.841 61.9649L65.186 73.9999C53.198 75.6459 43.864 85.7329 43.406 98.0569L31.261 186.364L27.728 190.472L13.624 176.391ZM247.935 176.539L213.305 211.17C183.728 240.747 152.811 264.488 125.652 270.407C124.827 270.588 124.051 270.935 123.381 271.45L107.726 283.472C106.712 284.251 105.507 284.634 104.307 284.634C102.864 284.634 101.427 284.079 100.339 282.993L30.668 213.433C28.585 211.356 28.458 208.024 30.377 205.793L42.657 191.517C42.664 191.509 42.668 191.5 42.67 191.491L55.389 99.0079C55.389 91.7219 61.351 85.7599 68.637 85.7599C75.923 85.7599 81.884 91.7219 81.884 99.0079L82.51 120.832C82.614 124.458 85.597 126.819 88.701 126.819C90.215 126.819 91.759 126.256 93.01 125.006L163.441 54.5749C166.044 51.9719 169.472 50.6719 172.903 50.6719C176.818 50.6719 180.734 52.3669 183.418 55.7579C187.674 61.1349 186.927 68.9379 182.078 73.7859L133.56 122.304C131.041 124.824 131.041 128.907 133.56 131.425C134.835 132.7 136.506 133.338 138.177 133.338C139.848 133.338 141.52 132.7 142.794 131.425L205.168 69.0519C207.77 66.4489 211.199 65.1489 214.63 65.1489C218.545 65.1499 222.461 66.8449 225.145 70.2359C229.401 75.6119 228.654 83.4149 223.805 88.2629L161.724 150.344C159.171 152.898 159.171 157.036 161.724 159.59C162.982 160.848 164.63 161.477 166.28 161.477C167.928 161.477 169.577 160.848 170.835 159.59L219.646 110.78C222.249 108.177 225.678 106.877 229.108 106.877C233.023 106.877 236.939 108.572 239.623 111.964C243.879 117.34 243.132 125.143 238.283 129.991L189.934 178.341C187.322 180.952 187.322 185.188 189.934 187.799L190.012 187.878C191.219 189.085 192.801 189.688 194.382 189.688C195.964 189.688 197.546 189.085 198.752 187.878L228.726 157.904C231.427 155.203 235.043 153.775 238.647 153.775C241.514 153.775 244.373 154.679 246.754 156.564C253.114 161.598 253.508 170.967 247.935 176.539Z" fill="#A3A3A3"/>
</g>
<defs>
<clipPath id="clip0_864_2118">
<rect width="297.221" height="297.221" fill="white"/>
</clipPath>
</defs>
</svg>
